HIERARCHY
ROOT Junyuan_V1:Solving:Hips
{
	OFFSET 0.000000 0.000000 0.000000
	CHANNELS 6 Xposition Yposition Zposition Xrotation Yrotation Zrotation
	JOINT Junyuan_V1:Solving:Spine
	{
		OFFSET 0.000000 -8.943189 2.778120
		CHANNELS 6 Xposition Yposition Zposition Xrotation Yrotation Zrotation
		JOINT Junyuan_V1:Solving:Spine1
		{
			OFFSET 0.000000 -9.944814 1.753542
			CHANNELS 6 Xposition Yposition Zposition Xrotation Yrotation Zrotation
			JOINT Junyuan_V1:Solving:Spine2
			{
				OFFSET 0.000000 -10.059801 0.880121
				CHANNELS 6 Xposition Yposition Zposition Xrotation Yrotation Zrotation
				JOINT Junyuan_V1:Solving:Spine3
				{
					OFFSET 0.000000 -10.098228 0.000000
					CHANNELS 6 Xposition Yposition Zposition Xrotation Yrotation Zrotation
					JOINT Junyuan_V1:Solving:Neck
					{
						OFFSET 0.000000 -12.983437 -1.298342
						CHANNELS 6 Xposition Yposition Zposition Xrotation Yrotation Zrotation
						JOINT Junyuan_V1:Solving:Neck1
						{
							OFFSET 0.000000 -8.085114 -0.707354
							CHANNELS 6 Xposition Yposition Zposition Xrotation Yrotation Zrotation
							JOINT Junyuan_V1:Solving:Head
							{
								OFFSET 0.000000 -7.992695 -1.409326
								CHANNELS 6 Xposition Yposition Zposition Xrotation Yrotation Zrotation
								JOINT Junyuan_V1:Solving:HeadEnd
								{
									OFFSET 0.000000 -9.728081 0.000002
									CHANNELS 6 Xposition Yposition Zposition Xrotation Yrotation Zrotation
									End Site
									{
										OFFSET 0.000000 -9.728081 0.000002
									}
								}
							}
						}
					}
					JOINT Junyuan_V1:Solving:RightShoulder
					{
						OFFSET 0.000000 -9.273884 -6.154356
						CHANNELS 6 Xposition Yposition Zposition Xrotation Yrotation Zrotation
						JOINT Junyuan_V1:Solving:RightArm
						{
							OFFSET -19.110832 -0.000008 0.000000
							CHANNELS 6 Xposition Yposition Zposition Xrotation Yrotation Zrotation
							JOINT Junyuan_V1:Solving:RightForeArm
							{
								OFFSET -27.916382 -0.000008 0.000000
								CHANNELS 6 Xposition Yposition Zposition Xrotation Yrotation Zrotation
								JOINT Junyuan_V1:Solving:RightHand
								{
									OFFSET -21.757072 -0.000008 0.000000
									CHANNELS 6 Xposition Yposition Zposition Xrotation Yrotation Zrotation
									JOINT Junyuan_V1:Solving:RightHandThumb1
									{
										OFFSET -3.656471 2.766285 -2.718907
										CHANNELS 6 Xposition Yposition Zposition Xrotation Yrotation Zrotation
										End Site
										{
											OFFSET -5.307442 0.000000 -5.356520
										}
									}
									JOINT Junyuan_V1:Solving:RightHandMiddle1
									{
										OFFSET -9.750572 -0.000004 0.062504
										CHANNELS 6 Xposition Yposition Zposition Xrotation Yrotation Zrotation
										End Site
										{
											OFFSET -7.540642 -0.000004 0.000000
										}
									}
								}
							}
						}
					}
					JOINT Junyuan_V1:Solving:LeftShoulder
					{
						OFFSET 0.000000 -9.273884 -6.154356
						CHANNELS 6 Xposition Yposition Zposition Xrotation Yrotation Zrotation
						JOINT Junyuan_V1:Solving:LeftArm
						{
							OFFSET 19.110832 -0.000008 0.000000
							CHANNELS 6 Xposition Yposition Zposition Xrotation Yrotation Zrotation
							JOINT Junyuan_V1:Solving:LeftForeArm
							{
								OFFSET 27.916382 -0.000008 0.000000
								CHANNELS 6 Xposition Yposition Zposition Xrotation Yrotation Zrotation
								JOINT Junyuan_V1:Solving:LeftHand
								{
									OFFSET 21.757072 -0.000008 0.000000
									CHANNELS 6 Xposition Yposition Zposition Xrotation Yrotation Zrotation
									JOINT Junyuan_V1:Solving:LeftHandThumb1
									{
										OFFSET 3.656471 2.766285 -2.718907
										CHANNELS 6 Xposition Yposition Zposition Xrotation Yrotation Zrotation
										End Site
										{
											OFFSET 5.307442 0.000000 -5.356520
										}
									}
									JOINT Junyuan_V1:Solving:LeftHandMiddle1
									{
										OFFSET 9.750572 -0.000004 0.062504
										CHANNELS 6 Xposition Yposition Zposition Xrotation Yrotation Zrotation
										End Site
										{
											OFFSET 7.540642 -0.000004 0.000000
										}
									}
								}
							}
						}
					}
				}
			}
		}
	}
	JOINT Junyuan_V1:Solving:RightUpLeg
	{
		OFFSET -8.521003 0.000000 0.000000
		CHANNELS 6 Xposition Yposition Zposition Xrotation Yrotation Zrotation
		JOINT Junyuan_V1:Solving:RightLeg
		{
			OFFSET 0.000000 41.622898 -0.000006
			CHANNELS 6 Xposition Yposition Zposition Xrotation Yrotation Zrotation
			JOINT Junyuan_V1:Solving:RightFoot
			{
				OFFSET 0.000000 37.258389 -0.000006
				CHANNELS 6 Xposition Yposition Zposition Xrotation Yrotation Zrotation
				JOINT Junyuan_V1:Solving:RightForeFoot
				{
					OFFSET 0.000000 3.234154 -0.000000
					CHANNELS 6 Xposition Yposition Zposition Xrotation Yrotation Zrotation
					JOINT Junyuan_V1:Solving:RightToeBase
					{
						OFFSET 0.000000 0.000000 -12.665958
						CHANNELS 6 Xposition Yposition Zposition Xrotation Yrotation Zrotation
						JOINT Junyuan_V1:Solving:RightToeBaseEnd
						{
							OFFSET 0.000000 0.000000 -2.833065
							CHANNELS 6 Xposition Yposition Zposition Xrotation Yrotation Zrotation
							End Site
							{
								OFFSET 0.000000 -2.833061 0.000002
							}
						}
					}
				}
			}
		}
	}
	JOINT Junyuan_V1:Solving:LeftUpLeg
	{
		OFFSET 8.521003 0.000000 0.000000
		CHANNELS 6 Xposition Yposition Zposition Xrotation Yrotation Zrotation
		JOINT Junyuan_V1:Solving:LeftLeg
		{
			OFFSET 0.000000 41.622898 -0.000006
			CHANNELS 6 Xposition Yposition Zposition Xrotation Yrotation Zrotation
			JOINT Junyuan_V1:Solving:LeftFoot
			{
				OFFSET 0.000000 37.258389 -0.000006
				CHANNELS 6 Xposition Yposition Zposition Xrotation Yrotation Zrotation
				JOINT Junyuan_V1:Solving:LeftForeFoot
				{
					OFFSET 0.000000 3.234154 -0.000000
					CHANNELS 6 Xposition Yposition Zposition Xrotation Yrotation Zrotation
					JOINT Junyuan_V1:Solving:LeftToeBase
					{
						OFFSET 0.000000 0.000000 -12.665958
						CHANNELS 6 Xposition Yposition Zposition Xrotation Yrotation Zrotation
						JOINT Junyuan_V1:Solving:LeftToeBaseEnd
						{
							OFFSET 0.000000 0.000000 -4.326123
							CHANNELS 6 Xposition Yposition Zposition Xrotation Yrotation Zrotation
							End Site
							{
								OFFSET 0.000000 -4.326126 0.000000
							}
						}
					}
				}
			}
		}
	}
}
MOTION
Frames: 4
Frame Time: 0.041667
-17.328241 -7.755135 -88.014908 89.149774 158.782214 1.745031 0.000002 -8.943203 2.778120 8.993529 0.139896 -0.898390 -0.000002 -9.944825 1.753544 -1.416592 0.001734 -0.231335 0.000001 -10.059779 0.880121 -5.338674 -2.636527 -1.068834 -0.000002 -10.098238 -0.000001 -3.124687 -0.804291 -1.558386 -0.000001 -12.983440 -1.298340 4.178792 5.946399 3.247116 -0.000001 -8.085104 -0.707357 -6.947929 19.023989 1.956110 -0.000000 -7.992702 -1.409327 -5.106094 2.812633 -3.189200 -0.000002 -9.728081 -0.000005 -0.000001 -0.000000 0.000000 -0.000003 -9.273872 -6.154353 -0.000007 17.601287 15.629349 -19.110826 -0.000024 0.000004 -16.894106 -19.947511 -93.225245 -27.916397 -0.000007 -0.000007 38.352622 -50.192007 31.292471 -21.757059 -0.000014 0.000008 1.303709 -14.034183 5.361335 -3.656465 2.766259 -2.718902 -0.000005 0.000002 -0.000002 -9.750559 -0.000017 0.062493 -0.000007 0.000002 0.000007 -0.000000 -9.273865 -6.154353 -0.000008 -16.295283 -8.572610 19.110815 -0.000002 0.000006 -6.011244 27.699571 90.365493 27.916426 -0.000004 0.000007 33.979313 14.118382 -9.336036 21.757086 -0.000004 0.000000 -1.767115 4.466194 21.613073 3.656461 2.766280 -2.718898 -0.000003 -0.000007 0.000005 9.750570 0.000006 0.062511 -0.000002 0.000003 -0.000003 -8.521001 -0.000022 0.000001 2.523176 19.722844 0.140937 0.000002 41.622890 -0.000006 -1.643159 -0.000000 0.000000 -0.000000 37.258389 -0.000006 6.730791 3.539513 2.521311 -0.000002 3.234154 -0.000000 -0.000002 0.000000 0.000000 0.000001 -0.000004 -12.665963 -5.091451 0.000001 -0.000000 0.000001 -0.000008 -2.833064 -0.000000 0.000000 0.000000 8.521005 -0.000010 0.000000 2.237531 -1.337672 -9.187660 0.000001 41.622910 -0.000004 -1.560175 0.000001 0.000001 -0.000001 37.258396 -0.000007 6.786455 8.515238 10.812517 0.000014 3.234146 -0.000001 -0.000000 0.000002 -0.000000 -0.000005 -0.000018 -12.665960 5.170462 -0.000001 0.000000 -0.000007 -0.000008 -4.326125 -0.000002 0.000002 -0.000000 
-17.352057 -7.761332 -88.019058 89.241496 158.803578 1.635438 0.000002 -8.943182 2.778113 9.040168 0.139282 -0.813007 0.000002 -9.944837 1.753546 -1.388801 0.002580 -0.236611 -0.000001 -10.059786 0.880123 -5.335542 -2.594439 -1.081324 -0.000001 -10.098243 -0.000001 -3.110988 -0.786173 -1.547751 -0.000005 -12.983421 -1.298331 4.224559 6.004486 3.353985 -0.000005 -8.085114 -0.707356 -7.005203 19.201566 1.930879 -0.000001 -7.992683 -1.409328 -5.169613 2.870007 -3.292981 0.000003 -9.728096 0.000004 -0.000001 0.000000 -0.000000 -0.000006 -9.273884 -6.154345 -0.000009 17.665907 15.880588 -19.110819 -0.000045 0.000007 -16.803372 -19.446295 -93.038310 -27.916374 -0.000012 -0.000008 44.906086 -49.337902 37.092285 -21.757069 -0.000013 0.000014 1.617523 -14.646323 6.372394 -3.656476 2.766280 -2.718888 -0.000001 0.000000 0.000004 -9.750580 -0.000031 0.062515 -0.000003 0.000002 0.000000 -0.000003 -9.273861 -6.154346 -0.000011 -16.288075 -8.536097 19.110817 0.000008 0.000003 -5.790564 28.931667 90.075838 27.916384 -0.000001 0.000007 33.207355 14.420333 -9.258275 21.757069 -0.000016 0.000003 -1.570116 4.012041 21.393805 3.656448 2.766285 -2.718897 -0.000001 0.000002 -0.000000 9.750555 -0.000004 0.062513 -0.000009 0.000002 -0.000003 -8.521002 0.000004 -0.000005 2.577600 19.716640 0.239490 0.000002 41.622902 -0.000009 -1.628238 0.000000 0.000000 0.000000 37.258408 -0.000004 6.685735 3.532504 2.475331 0.000002 3.234146 -0.000000 -0.000001 0.000000 0.000000 0.000001 0.000004 -12.665953 -5.051607 0.000001 -0.000000 -0.000001 -0.000008 -2.833063 -0.000000 -0.000000 -0.000001 8.521002 0.000008 -0.000008 2.342272 -1.356895 -9.103932 0.000004 41.622906 -0.000011 -1.589626 -0.000004 -0.000001 -0.000001 37.258377 -0.000006 6.679276 8.553359 10.639021 -0.000001 3.234146 0.000000 -0.000001 0.000001 -0.000001 -0.000003 -0.000000 -12.665957 5.672181 0.000000 -0.000001 -0.000006 -0.000016 -4.326126 -0.000000 0.000001 -0.000000 
-17.369457 -7.760412 -88.022583 89.281391 158.822525 1.588712 0.000000 -8.943181 2.778113 9.054672 0.142903 -0.797809 0.000001 -9.944833 1.753544 -1.378373 0.004749 -0.242286 -0.000002 -10.059823 0.880121 -5.335367 -2.565148 -1.080152 -0.000000 -10.098247 0.000000 -3.099444 -0.764967 -1.571741 -0.000001 -12.983459 -1.298345 4.251667 5.969342 3.372988 -0.000002 -8.085137 -0.707359 -6.999620 19.102671 1.918488 -0.000005 -7.992698 -1.409324 -5.178744 2.839510 -3.239298 -0.000003 -9.728058 0.000004 -0.000001 0.000000 -0.000000 -0.000006 -9.273922 -6.154355 -0.000006 17.750069 16.150887 -19.110821 0.000016 0.000002 -16.897758 -19.355887 -92.901665 -27.916374 -0.000007 -0.000001 45.764590 -50.741735 38.493382 -21.757084 -0.000006 0.000015 1.378957 -15.649995 5.099246 -3.656476 2.766252 -2.718909 0.000002 0.000002 -0.000006 -9.750572 -0.000017 0.062505 -0.000000 0.000002 0.000000 0.000000 -9.273899 -6.154357 -0.000008 -16.305084 -8.419053 19.110823 0.000010 0.000006 -5.462920 30.467544 89.673280 27.916410 -0.000004 0.000002 32.172220 14.882485 -9.177695 21.757084 -0.000019 0.000001 -1.302036 3.393071 21.007917 3.656477 2.766270 -2.718911 -0.000001 -0.000015 0.000007 9.750618 0.000004 0.062503 -0.000002 -0.000003 -0.000000 -8.521003 -0.000006 -0.000006 2.592678 19.709593 0.288916 -0.000002 41.622902 -0.000007 -1.613903 0.000000 0.000000 -0.000000 37.258381 -0.000006 6.680932 3.530917 2.454183 0.000001 3.234146 -0.000001 -0.000000 0.000000 -0.000001 0.000002 -0.000008 -12.665957 -5.114720 0.000001 -0.000000 -0.000000 -0.000008 -2.833064 -0.000000 -0.000000 -0.000000 8.520999 -0.000001 -0.000005 2.363283 -1.422548 -9.062688 -0.000002 41.622898 -0.000008 -1.567048 0.000004 -0.000001 -0.000004 37.258389 -0.000003 6.639400 8.629011 10.557207 0.000004 3.234154 0.000000 -0.000000 0.000003 -0.000001 0.000003 -0.000001 -12.665957 5.860672 0.000001 0.000002 -0.000003 -0.000015 -4.326124 0.000001 0.000004 -0.000002 
-17.382978 -7.754770 -88.024796 89.285599 158.848043 1.580475 0.000001 -8.943190 2.778116 9.047252 0.143187 -0.808615 0.000001 -9.944815 1.753542 -1.388841 0.005979 -0.245380 -0.000001 -10.059815 0.880119 -5.328884 -2.539189 -1.077745 -0.000000 -10.098221 0.000001 -3.095265 -0.753736 -1.580845 -0.000004 -12.983412 -1.298339 4.240216 5.953246 3.367618 -0.000002 -8.085089 -0.707355 -6.947663 19.009549 1.958048 -0.000001 -7.992705 -1.409328 -5.114546 2.799952 -3.164518 -0.000005 -9.728081 -0.000002 0.000000 -0.000000 -0.000000 -0.000004 -9.273903 -6.154354 -0.000003 17.849989 16.359278 -19.110817 -0.000026 0.000008 -16.881839 -19.728238 -92.482838 -27.916370 -0.000005 0.000002 46.067854 -52.678172 39.538015 -21.757072 -0.000016 0.000000 1.283823 -16.244497 4.580386 -3.656475 2.766293 -2.718892 0.000003 0.000005 -0.000004 -9.750586 0.000017 0.062518 -0.000001 -0.000000 0.000002 -0.000001 -9.273884 -6.154354 -0.000005 -16.301669 -8.365983 19.110823 0.000002 0.000009 -5.360816 30.764384 89.545153 27.916372 0.000004 0.000005 32.281735 14.779254 -9.154568 21.757067 -0.000014 0.000000 -1.228309 3.226603 20.853819 3.656458 2.766277 -2.718893 -0.000000 -0.000002 0.000003 9.750576 -0.000009 0.062507 -0.000004 0.000002 -0.000004 -8.520998 -0.000002 -0.000003 2.578542 19.704814 0.309972 0.000001 41.622902 -0.000009 -1.598855 0.000000 -0.000000 0.000001 37.258377 -0.000004 6.680723 3.509425 2.464182 -0.000000 3.234154 -0.000000 -0.000002 0.000000 -0.000000 0.000002 -0.000007 -12.665957 -5.094481 -0.000000 0.000000 -0.000000 -0.000008 -2.833061 -0.000000 0.000000 -0.000001 8.521003 0.000009 -0.000004 2.367568 -1.417124 -9.046759 0.000001 41.622894 -0.000005 -1.555024 -0.000000 -0.000000 -0.000001 37.258396 -0.000007 6.649047 8.610983 10.557825 -0.000009 3.234161 0.000000 -0.000001 0.000003 0.000001 -0.000011 -0.000002 -12.665957 5.818412 0.000001 0.000001 -0.000003 -0.000008 -4.326128 -0.000001 0.000004 -0.000000 
